<svg id="visual" viewBox="0 0 900 600" width="900" height="600" xmlns="http://www.w3.org/2000/svg" xmlns:xlink="http://www.w3.org/1999/xlink" version="1.1"><rect x="0" y="0" width="900" height="600" fill="#FFFFFF"></rect><path d="M0 494L12.5 498.2C25 502.3 50 510.7 75 511.5C100 512.3 125 505.7 150 499.8C175 494 200 489 225 492.3C250 495.7 275 507.3 300 515C325 522.7 350 526.3 375 522C400 517.7 425 505.3 450 505C475 504.7 500 516.3 525 523.2C550 530 575 532 600 526C625 520 650 506 675 505.7C700 505.3 725 518.7 750 525.3C775 532 800 532 825 525C850 518 875 504 887.5 497L900 490L900 601L887.5 601C875 601 850 601 825 601C800 601 775 601 750 601C725 601 700 601 675 601C650 601 625 601 600 601C575 601 550 601 525 601C500 601 475 601 450 601C425 601 400 601 375 601C350 601 325 601 300 601C275 601 250 601 225 601C200 601 175 601 150 601C125 601 100 601 75 601C50 601 25 601 12.5 601L0 601Z" fill="#dee3ff" stroke-linecap="round" stroke-linejoin="miter"></path></svg>